Coordinates
version=1
nRows=29
nColumns=24
inDegrees=yes

Units are S.I. units (second, meters, Newtons, ...)
Angles are in degrees.

endheader
time	pelvis_tilt	pelvis_list	pelvis_rotation	pelvis_tx	pelvis_ty	pelvis_tz	hip_flexion_r	hip_adduction_r	hip_rotation_r	knee_angle_r	ankle_angle_r	subtalar_angle_r	mtp_angle_r	hip_flexion_l	hip_adduction_l	hip_rotation_l	knee_angle_l	ankle_angle_l	subtalar_angle_l	mtp_angle_l	lumbar_extension	lumbar_bending	lumbar_rotation
      2.05000000	     17.29308980	     -0.80390563	      3.52290415	      0.24800809	      0.96704617	      0.04151309	    -14.84741072	      2.63748966	      1.47289763	     -3.34168999	     12.65508385	     -3.95184327	     28.45516244	    -12.72878742	    -11.44919332	    -11.76479690	    -51.84887738	     -0.79845971	      3.07207346	     43.42204920	    -28.06871065	      5.39430684	     -1.60143972
      2.05500000	     17.17938128	     -0.73070386	      3.54163927	      0.25198430	      0.96715939	      0.04178724	    -15.09673561	      2.59643538	      1.50133760	     -3.14120288	     12.78365074	     -4.02474099	     28.38988878	    -12.00660023	    -11.46484300	    -11.78793266	    -52.06646417	     -0.11774230	      2.40047335	     43.18010896	    -28.01780534	      5.32159797	     -1.58638773
      2.06000000	     17.06094470	     -0.69268307	      3.55214100	      0.25594928	      0.96721184	      0.04208356	    -15.34086484	      2.59310210	      1.58617793	     -2.93612551	     12.89949166	     -4.15414515	     27.53290062	    -11.28461182	    -11.52351167	    -11.84597075	    -52.26571894	      0.82521708	      2.23490436	     40.26808263	    -27.96380715	      5.27709277	     -1.54053556
      2.06500000	     16.94338574	     -0.60532459	      3.55277664	      0.25987527	      0.96727132	      0.04231367	    -15.55040476	      2.52829410	      1.56836477	     -2.80602071	     13.10380969	     -4.15259124	     27.51593315	    -10.58682301	    -11.49287843	    -11.88932793	    -52.32720459	      1.52151579	      1.84402687	     40.19766324	    -27.91828114	      5.18130102	     -1.50762313
      2.07000000	     16.87163794	     -0.52287484	      3.53986439	      0.26380043	      0.96736456	      0.04252031	    -15.83052810	      2.46133567	      1.61429141	     -2.62857891	     13.25118841	     -4.14762866	     27.49897584	     -9.96374993	    -11.45834903	    -11.96378310	    -52.30567860	      2.24402089	      1.63934555	     40.16629010	    -27.92525889	      5.09017926	     -1.46279363
      2.07500000	     16.62974849	     -0.51589475	      3.55890050	      0.26762141	      0.96715847	      0.04273063	    -15.87799064	      2.47924047	      1.65483339	     -2.52134074	     13.43408613	     -4.23167924	     27.37512939	     -9.09758562	    -11.50286063	    -11.98864761	    -52.33010860	      2.99730593	      1.65075963	     39.91899549	    -27.75468892	      5.07222254	     -1.39614762
      2.08000000	     16.46221566	     -0.48687821	      3.52661374	      0.27143832	      0.96704067	      0.04297740	    -16.01394975	      2.46335866	      1.79655543	     -2.40370496	     13.66191175	     -4.37013914	     26.22043232	     -8.36329886	    -11.50277439	    -12.09088607	    -52.25298160	      3.87883380	      1.82130572	     37.38240055	    -27.67255392	      5.01449823	     -1.30996757
      2.08500000	     16.35526028	     -0.42928984	      3.50972068	      0.27533835	      0.96700688	      0.04314492	    -16.21328753	      2.41783638	      1.73621503	     -2.30220558	     13.85344610	     -4.24695087	     26.21249727	     -7.73830508	    -11.45944738	    -12.17899647	    -52.02686214	      4.62151361	      2.02879606	     37.37699164	    -27.64695358	      4.93698104	     -1.23212418
      2.09000000	     16.19259462	     -0.40919753	      3.49433018	      0.27915022	      0.96683817	      0.04327739	    -16.33589954	      2.40363538	      1.75739318	     -2.21545266	     14.06467532	     -4.17818554	     26.15321644	     -7.03086257	    -11.44123112	    -12.26481385	    -51.79312148	      5.33215323	      2.24785133	     37.29548413	    -27.57030106	      4.90108279	     -1.11952761
      2.09500000	     16.04326694	     -0.37500406	      3.45753019	      0.28299504	      0.96668035	      0.04344276	    -16.46340786	      2.37373246	      1.76083195	     -2.15269305	     14.27999451	     -4.14962240	     26.08328443	     -6.37665225	    -11.39342359	    -12.39053462	    -51.45325096	      6.01976409	      2.50978317	     37.21022821	    -27.50658737	      4.83572206	     -1.02023569
      2.10000000	     15.80303537	     -0.38903297	      3.45780755	      0.28674145	      0.96634282	      0.04351836	    -16.47232889	      2.39134898	      1.79228850	     -2.12040287	     14.61015697	     -4.02212514	     24.92671863	     -5.57935425	    -11.37889211	    -12.45276366	    -51.14064775	      6.78354444	      2.84125345	     35.39607629	    -27.35059178	      4.83527322	     -0.92596660
      2.10500000	     15.72852462	     -0.35805509	      3.39022188	      0.29061001	      0.96625374	      0.04367008	    -16.67861469	      2.35405100	      1.79320448	     -2.06147401	     14.81700702	     -3.92194360	     24.91380005	     -5.07009098	    -11.31022222	    -12.64028042	    -50.61778430	      7.43054169	      3.19584573	     35.40003384	    -27.37001780	      4.76612690	     -0.75942345
      2.11000000	     15.58880979	     -0.34984493	      3.34586395	      0.29441736	      0.96603665	      0.04377600	    -16.79367112	      2.34045879	      1.78926629	     -2.03409666	     15.05754059	     -3.80787111	     24.87486619	     -4.46988054	    -11.24858996	    -12.78553850	    -50.07238795	      8.03250919	      3.52284925	     35.35955052	    -27.32399446	      4.72522117	     -0.61064535
      2.11500000	     15.44878867	     -0.34580003	      3.29875821	      0.29821960	      0.96580197	      0.04386456	    -16.90231037	      2.32804688	      1.78602083	     -2.01842735	     15.30727249	     -3.67964476	     24.81346397	     -3.88706342	    -11.17631991	    -12.93904497	    -49.45423834	      8.60154623	      3.82446303	     35.28760871	    -27.27839732	      4.68715799	     -0.45721304
      2.12000000	     15.31969727	     -0.34381849	      3.24955184	      0.30202711	      0.96556111	      0.04392439	    -17.01840938	      2.31450664	      1.77660647	     -2.01157372	     15.56528782	     -3.53274610	     24.73108448	     -3.33584035	    -11.09176673	    -13.10029435	    -48.76309275	      9.13538462	      4.11362434	     35.18864494	    -27.24444911	      4.65269431	     -0.29628487
      2.12500000	     15.19567475	     -0.33956831	      3.19440448	      0.30582087	      0.96531655	      0.04398422	    -17.13112785	      2.29661160	      1.76598908	     -2.02157138	     15.84111786	     -3.36890155	     24.62942878	     -2.81089955	    -10.99209182	    -13.27364213	    -47.99728422	      9.63136474	      4.39438819	     35.06664143	    -27.21963341	      4.61021452	     -0.13027768
      2.13000000	     15.10426158	     -0.33277407	      3.14245365	      0.30961400	      0.96511274	      0.04394999	    -17.24711301	      2.26982807	      1.63682401	     -2.11928581	     16.35183405	     -2.83073169	     22.60514949	     -2.34393674	    -10.86366288	    -13.43473568	    -47.16784590	     10.23912759	      4.70567342	     32.80317533	    -27.22967639	      4.57739053	      0.05085383
      2.13500000	     14.97832546	     -0.32248598	      3.10774743	      0.31338989	      0.96485894	      0.04394007	    -17.36645633	      2.24801356	      1.66266878	     -2.10831010	     16.52982896	     -2.79290137	     22.61147580	     -1.85158072	    -10.72166692	    -13.57017087	    -46.24766754	     10.66180206	      4.91363718	     32.82182199	    -27.20430871	      4.53510602	      0.17440346
      2.14000000	     14.87897823	     -0.32575815	      3.02714091	      0.31719293	      0.96460493	      0.04397235	    -17.49259188	      2.22749568	      1.66555460	     -2.14165184	     16.83087641	     -2.62972017	     22.60690370	     -1.42388689	    -10.60002692	    -13.80050100	    -45.26674817	     11.03874278	      5.23868693	     32.81452152	    -27.20781367	      4.49148530	      0.39259070
      2.14500000	     14.78415766	     -0.31356400	      2.96160737	      0.32097837	      0.96437783	      0.04393914	    -17.61879830	      2.19133474	      1.64706991	     -2.18763197	     17.10733598	     -2.44692930	     22.57375139	     -1.02441979	    -10.43492410	    -13.99160961	    -44.19501898	     11.38565137	      5.47802952	     32.78372507	    -27.21834176	      4.43916950	      0.57380862
      2.15000000	     14.71529608	     -0.29567078	      2.89155161	      0.32476072	      0.96417668	      0.04388738	    -17.76534428	      2.14766467	      1.61784841	     -2.25132675	     17.39280734	     -2.22664639	     22.50231428	     -0.68187825	    -10.25244434	    -14.19137179	    -43.04304076	     11.70085649	      5.73194901	     32.72943845	    -27.25913662	      4.38080867	      0.76276012
      2.15500000	     14.67057103	     -0.27346388	      2.81796072	      0.32855265	      0.96400525	      0.04379817	    -17.93048726	      2.09640676	      1.55049172	     -2.33299221	     17.67280051	     -1.95939472	     22.34888523	     -0.39845065	    -10.05397773	    -14.41132963	    -41.80743262	     12.00489640	      5.98953406	     32.63450116	    -27.32682595	      4.31896962	      0.92738978
      2.16000000	     14.58358852	     -0.24155692	      2.75521219	      0.33230175	      0.96376252	      0.04368977	    -18.06188808	      2.03580693	      1.57835161	     -2.38392290	     17.97486678	     -1.82677349	     22.23591705	     -0.07631455	     -9.82747235	    -14.58284006	    -40.51958383	     12.23874319	      6.27056677	     32.57723531	    -27.35109773	      4.24476335	      1.09094044
      2.16500000	     14.55462168	     -0.20787038	      2.67290587	      0.33612712	      0.96359646	      0.04357103	    -18.24881165	      1.96940908	      1.52147453	     -2.45908326	     18.25107795	     -1.58918744	     22.03031813	      0.12892031	     -9.59874630	    -14.82895179	    -39.13439663	     12.49275012	      6.60221148	     32.49168800	    -27.43191563	      4.16514205	      1.26737403
      2.17000000	     14.53005472	     -0.11970756	      2.64540339	      0.33992471	      0.96345130	      0.04329067	    -18.43600568	      1.85454893	      1.36284455	     -2.56427775	     18.66472891	     -1.20562183	     21.09603574	      0.31185343	     -9.27640510	    -14.95961553	    -37.65536651	     12.65407357	      6.93357887	     32.16064660	    -27.52011267	      4.05819106	      1.32951874
      2.17500000	     14.43960314	     -0.12188116	      2.53011773	      0.34368001	      0.96315749	      0.04320661	    -18.54678456	      1.81151066	      1.49720043	     -2.63651753	     18.92153136	     -1.16083664	     20.97034247	      0.55057883	     -9.07526093	    -15.23798237	    -36.18359862	     12.87550460	      7.40447892	     32.15074861	    -27.54381600	      3.99431375	      1.56021661
      2.18000000	     14.40027856	     -0.07633925	      2.44049280	      0.34747342	      0.96294962	      0.04302292	    -18.71962247	      1.72416785	      1.53087558	     -2.71221061	     19.19906686	     -1.03518239	     20.82403553	      0.68909967	     -8.80286915	    -15.48050166	    -34.59703891	     13.01615889	      7.92059186	     32.14393050	    -27.61940234	      3.89772673	      1.71437756
      2.18500000	     14.37113035	     -0.02081251	      2.35538640	      0.35129564	      0.96275038	      0.04279763	    -18.90101975	      1.62539116	      1.53870522	     -2.80078637	     19.48302247	     -0.86967169	     20.62273830	      0.78318623	     -8.51013003	    -15.72989640	    -32.93664231	     13.12877089	      8.48827797	     32.15090241	    -27.70101050	      3.79231094	      1.83801746
      2.19000000	     14.32723667	      0.03462489	      2.26524049	      0.35511651	      0.96251851	      0.04254734	    -19.06128383	      1.52213833	      1.56455930	     -2.89823506	     19.78185824	     -0.72754797	     20.42134833	      0.86851764	     -8.20960739	    -15.98725039	    -31.22095517	     13.18882112	      9.12721268	     32.17999405	    -27.76669879	      3.68420183	      1.97009419
